<mxfile host="app.diagrams.net" modified="2024-03-26T04:45:48.544Z" agent="Mozilla/5.0 (Macintosh; Intel Mac OS X 10_15_7) AppleWebKit/537.36 (KHTML, like Gecko) Chrome/122.0.0.0 Safari/537.36" etag="IVPKkSt59cISROqtD-3A" version="24.1.0" type="github">
  <diagram name="페이지-1" id="iFx8h8ma6f4BTEdZsqtg">
    <mxGraphModel dx="1266" dy="557" grid="1" gridSize="10" guides="1" tooltips="1" connect="1" arrows="1" fold="1" page="1" pageScale="1" pageWidth="827" pageHeight="1169" math="0" shadow="0">
      <root>
        <mxCell id="0" />
        <mxCell id="1" parent="0" />
        <mxCell id="X4Z0hcjLxXslhkN1ao24-1" value="Actor" style="shape=umlActor;verticalLabelPosition=bottom;verticalAlign=top;html=1;outlineConnect=0;" vertex="1" parent="1">
          <mxGeometry x="400" y="260" width="30" height="60" as="geometry" />
        </mxCell>
        <mxCell id="X4Z0hcjLxXslhkN1ao24-3" value="" style="shape=callout;whiteSpace=wrap;html=1;perimeter=calloutPerimeter;" vertex="1" parent="1">
          <mxGeometry x="414" y="180" width="120" height="80" as="geometry" />
        </mxCell>
        <mxCell id="X4Z0hcjLxXslhkN1ao24-2" value="스껄" style="text;html=1;align=center;verticalAlign=middle;whiteSpace=wrap;rounded=0;" vertex="1" parent="1">
          <mxGeometry x="450" y="190" width="60" height="30" as="geometry" />
        </mxCell>
      </root>
    </mxGraphModel>
  </diagram>
</mxfile>
